<?xml version="1.0" encoding="UTF-8"?>
<svg width="700pt" height="700pt" version="1.1" viewBox="0 0 700 700" xmlns="http://www.w3.org/2000/svg" xmlns:xlink="http://www.w3.org/1999/xlink" fill='#fff'>
 <defs>
 </defs>
 <g>
  <path d="m391.61 57.855c-1.0625-1.1836-2.5781-1.8555-4.1641-1.8555h-74.898c-1.5859 0-3.1016 0.67188-4.1602 1.8555-1.0664 1.1797-1.5742 2.7617-1.4062 4.3359l4.6328 43.543c-13.773 11.449-21.684 28.035-21.684 46.082 0 20.922 10.766 39.355 27.031 50.117h-27.199c-1.4883 0-2.9102 0.58984-3.9609 1.6406l-0.019532 0.019531c-0.003906 0.003906-0.007812 0.007812-0.011718 0.011719l-85.129 85.129c-0.003906 0.003906-0.003906 0.003906-0.007812 0.007813l-0.027344 0.027343c-1.0508 1.0508-1.6406 2.4727-1.6406 3.9609v120.48c0 0.74219 0.14844 1.4727 0.42578 2.1445 0.26562 0.64062 0.65625 1.1758 1.1055 1.6523 0.046875 0.046876 0.0625 0.11719 0.10938 0.16406l85.191 85.191c0.52344 0.52344 1.1445 0.93359 1.8164 1.2148 0.67187 0.27344 1.4023 0.42188 2.1445 0.42188h120.48c0.74219 0 1.4727-0.14844 2.1445-0.42578 0.67188-0.27734 1.2891-0.6875 1.8164-1.2148l85.191-85.191c0.046875-0.046875 0.0625-0.11328 0.10938-0.16406 0.44531-0.47656 0.83984-1.0117 1.1055-1.6523 0.27734-0.67187 0.42578-1.3984 0.42578-2.1445v-120.48c0-1.4883-0.58984-2.9102-1.6406-3.9609l-85.16-85.156c-0.003907-0.003906-0.011719-0.011719-0.015625-0.015625l-0.019532-0.019531c-1.0508-1.0508-2.4727-1.6406-3.9609-1.6406h-27.199c16.266-10.758 27.031-29.195 27.031-50.117 0-18.016-7.9141-34.633-21.684-46.09l4.6328-43.535c0.17188-1.5742-0.33594-3.1562-1.4023-4.3359zm93.934 232.9-58.27 24.137-39.207-39.203 24.137-58.277zm4.2852 114.07-58.27-24.137v-55.445l58.27-24.137zm-77.629 83.688-24.137-58.27 39.207-39.207 58.27 24.137zm-197.75-73.34 58.27-24.137 39.207 39.207-24.137 58.27zm-4.2852-114.07 58.27 24.137v55.445l-58.27 24.137zm77.629-83.688 24.137 58.277-39.207 39.203-58.27-24.137zm91.348 65.191 41.219 41.211-0.003906 58.293-41.219 41.219h-58.285l-41.219-41.219 0.003906-58.293 41.219-41.211zm-56.863 151.92h55.441l24.133 58.27h-103.71zm55.438-163.12h-55.438l-24.137-58.273h103.71zm3.5039-204.21-8.1875 76.957h-46.07l-8.1875-76.957zm17.645 84.617c0 26.945-21.926 48.867-48.867 48.867-26.945 0-48.867-21.926-48.867-48.867 0-12.004 4.3008-23.219 11.98-32.012l3.25 30.543c0.30078 2.8477 2.7031 5.0078 5.5664 5.0078h56.141c2.8672 0 5.2656-2.1602 5.5664-5.0078l3.2461-30.52c7.6758 8.7969 11.984 20.016 11.984 31.988z"/>
 
 </g>
</svg>
