<?xml version="1.0" encoding="UTF-8"?>
<svg fill='#fff' width="700pt" height="700pt" version="1.1" viewBox="0 0 700 700" xmlns="http://www.w3.org/2000/svg" xmlns:xlink="http://www.w3.org/1999/xlink">
 <defs>
 
 </defs>
 <g>
  <path d="m305.33 392.16c-18.398-28-41.773-52.391-68.961-71.969 4.6328-4.582 7.4453-10.688 7.918-17.184 0.46875-6.4961-1.4336-12.945-5.3594-18.145-3.9258-5.1992-9.6055-8.7969-15.98-10.125v-48.289c7.0859-1.8398 12.758-7.1445 15.066-14.09 2.3125-6.9492 0.94531-14.594-3.625-20.312 16.184-5.3984 28.816-18.195 34.004-34.445s2.3047-34-7.7578-47.777c-10.062-13.773-26.098-21.918-43.156-21.918-17.059 0-33.09 8.1445-43.152 21.918-10.062 13.777-12.945 31.527-7.7578 47.777s17.82 29.047 34.004 34.445c-4.5703 5.7188-5.9375 13.363-3.625 20.309 2.3086 6.9492 7.9805 12.254 15.062 14.094v48.289c-6.7188 1.3984-12.652 5.3125-16.578 10.945-3.9297 5.6328-5.5508 12.551-4.5391 19.344 1.0117 6.7891 4.582 12.938 9.9805 17.18-30.953 20.562-57.422 47.184-77.805 78.258-20.383 31.074-34.262 65.953-40.797 102.54-0.57031 3.2227-0.078126 6.5469 1.4023 9.4688s3.8633 5.2852 6.8008 6.7383c37 18.148 80.504 28.102 121.54 28.742 67.898 0 122.49-23.984 132.47-28.891 2.8359-1.3945 5.1641-3.6406 6.6562-6.4297 1.4922-2.7852 2.0703-5.9688 1.6562-9.1016-3.1133-23.441-17.215-65.008-47.469-111.37zm-130.36-250.84c0.011719-11.27 4.5-22.074 12.477-30.039 7.9766-7.9609 18.785-12.43 30.059-12.422 11.27 0.007812 22.074 4.4883 30.043 12.465 7.9648 7.9727 12.438 18.781 12.434 30.055-0.003906 11.27-4.4844 22.078-12.453 30.047-7.9727 7.9648-18.781 12.441-30.051 12.441-11.277-0.015625-22.082-4.5078-30.051-12.484-7.9688-7.9766-12.449-18.785-12.457-30.062zm31.805 64.203c0.007812-4.3242 2.6172-8.2227 6.6172-9.875 4-1.6523 8.6016-0.73047 11.66 2.332 3.0586 3.0625 3.9688 7.6641 2.3125 11.66-1.6602 4-5.5625 6.6055-9.8867 6.6016-5.9141-0.007812-10.703-4.8047-10.703-10.715zm10.703 79.59c4.2344-0.003906 8.2969 1.6719 11.293 4.6641 3 2.9922 4.6836 7.0508 4.6875 11.285 0.003906 4.2344-1.6758 8.2969-4.668 11.293-2.9922 2.9961-7.0508 4.6836-11.285 4.6836-4.2344 0.003906-8.2969-1.6797-11.293-4.6719-2.9961-2.9961-4.6758-7.0547-4.6758-11.289 0-4.2305 1.6797-8.2852 4.668-11.277s7.043-4.6758 11.273-4.6836zm122.18 224.14c-9.5977 4.7188-62.086 27.773-127.55 27.77-49.82-0.78516-92.02-15.469-116.82-27.633-1.6562-0.82031-2.5742-2.6328-2.2539-4.457 6.4766-36.285 20.477-70.812 41.102-101.36 20.625-30.547 47.418-56.441 78.652-76.012 4.5312 0.8125 9.1914 0.4375 13.531-1.082 27.645 19.207 51.355 43.535 69.852 71.664 29.281 44.883 42.961 85.602 45.781 106.83 0.23828 1.7695-0.6875 3.4961-2.293 4.2812z"/>
  <path d="m212.02 547.95c-1.4961 0 1.5117 0.023437 0 0z"/>
  <path d="m212.12 522.69c-1.3047 0 1.3047 0.019531 0 0z"/>
  <path d="m284.2 405.98c-14.973-22.965-33.754-43.203-55.539-59.844-2.4258-1.8594-5.375-2.9023-8.4258-2.9844-3.0508-0.078126-6.0508 0.80469-8.5703 2.5273-49.398 33.672-84.957 84.062-100.12 141.89-0.91016 3.4297-0.52734 7.0703 1.0703 10.238 1.6016 3.1641 4.3086 5.6328 7.6055 6.9336 29.332 11.363 60.445 17.441 91.898 17.949 44.465 0 83.84-11.402 102.19-18.207v0.003907c3.4531-1.2812 6.293-3.8242 7.9453-7.1133 1.6523-3.293 1.9961-7.0898 0.96094-10.625-4.3281-14.461-15.152-44.199-39.012-80.766zm-30.855-22.238c7.9492 8.832 15.203 18.266 21.695 28.219 7.5586 11.551 14.449 23.523 20.637 35.863-2.7344 2.4453-5.2617 5.1133-7.5625 7.9688-11.266-31.258-36.68-52.578-47.711-60.691 3.9258-4.207 8.2617-8.0117 12.941-11.359zm-94.336 28.293c16.113-22.391 36.016-41.789 58.816-57.316 1.2734-0.875 2.9648-0.82812 4.1914 0.10938 8.3906 6.418 16.332 13.402 23.766 20.91-32.219 23.777-39.703 59.191-41.195 79.281-16.812-24.945-37.113-35.602-47.84-39.762 0.75391-1.0781 1.4961-2.1562 2.2617-3.2227zm-34.781 82.527v0.003906c-1.6641-0.65625-2.5742-2.4609-2.1133-4.1914 3.1484-11.863 7.1914-23.477 12.094-34.73 11.527 3.1328 44.723 15.41 57.367 55.059-23.098-2.1719-45.77-7.6055-67.344-16.137zm87.973 17.188c-2.375-0.039063-6.6211-0.13672-8.9922-0.24219-8.1445-29.672-26.344-46.332-40.496-55.164h0.003906c-7.4297-4.6367-15.449-8.2578-23.844-10.754 3.5312-7.1758 7.4258-14.164 11.668-20.941 5.6328 2.0117 11.016 4.6602 16.043 7.8984 10.137 6.4453 24.57 18.641 35.785 40.117 1.168 2.2812 3.5156 3.7148 6.0781 3.7188 0.64844 0 1.2969-0.09375 1.9219-0.26953 3.1523-0.87891 5.2422-3.8711 4.9805-7.1328-0.58594-11.352 0.59375-22.723 3.5-33.707 12.023 5.7422 41.148 22.812 54.586 58.176v-0.003906c-0.21094 3.8398-0.10156 7.6875 0.32031 11.504-20.227 4.3984-40.855 6.6758-61.551 6.8047zm64.883-36.465c-16.871-30.797-43.688-45.508-54.883-50.566l0.003906 0.003906c2.8125-7.5 6.5938-14.602 11.242-21.125 10.59 7.8008 38.621 31.094 46.891 64.168h-0.003907c-1.2383 2.4375-2.3203 4.9492-3.2461 7.5234zm33.414 18.941 0.003906 0.003906c-8.5312 3.1445-17.215 5.8594-26.016 8.1328-1.4805-16.398 4.4375-32.602 16.137-44.188 4.7461 10.285 8.793 20.879 12.113 31.711 0.51172 1.8086-0.46094 3.707-2.2344 4.3438z"/>
  <path d="m570.38 316.36c-18.402-27.996-41.773-52.387-68.961-71.969 4.6328-4.5781 7.4453-10.684 7.9141-17.18 0.47266-6.5-1.4336-12.945-5.3594-18.145-3.9219-5.1992-9.6016-8.7969-15.98-10.125v-48.289c7.0859-1.8438 12.758-7.1484 15.066-14.094 2.3125-6.9453 0.94531-14.59-3.625-20.309 16.184-5.3984 28.816-18.195 34.004-34.445 5.1875-16.254 2.3047-34.004-7.7578-47.777-10.062-13.773-26.098-21.918-43.156-21.918-17.059 0-33.09 8.1445-43.152 21.918-10.062 13.773-12.945 31.523-7.7578 47.777 5.1875 16.25 17.82 29.047 34.004 34.445-4.5742 5.7188-5.9375 13.363-3.6289 20.309 2.3125 6.9492 7.9805 12.254 15.066 14.094v48.285c-6.7188 1.3984-12.652 5.3164-16.578 10.949-3.9297 5.6289-5.5508 12.551-4.5391 19.34 1.0117 6.793 4.582 12.938 9.9805 17.18-30.953 20.566-57.422 47.188-77.805 78.262s-34.262 65.953-40.801 102.54c-0.56641 3.2266-0.074219 6.5508 1.4023 9.4727 1.4805 2.9219 3.8672 5.2852 6.8008 6.7383 37.004 18.148 80.504 28.098 121.54 28.746 67.902 0 122.49-23.984 132.47-28.891 2.8398-1.3945 5.168-3.6406 6.6602-6.4258 1.4922-2.7891 2.0703-5.9727 1.6523-9.1055-3.1133-23.445-17.215-65.012-47.465-111.38zm-130.36-250.84c0.011719-11.27 4.4961-22.074 12.473-30.039 7.9766-7.9609 18.789-12.434 30.059-12.426 11.273 0.007813 22.078 4.4922 30.043 12.465 7.9688 7.9727 12.441 18.785 12.438 30.055-0.003906 11.27-4.4844 22.078-12.457 30.047-7.9688 7.9688-18.777 12.445-30.051 12.445-11.273-0.019531-22.078-4.5078-30.047-12.484s-12.449-18.789-12.457-30.062zm31.805 64.203c0.003907-4.3281 2.6172-8.2266 6.6172-9.875 4-1.6523 8.5977-0.73438 11.656 2.3281s3.9727 7.6641 2.3125 11.664c-1.6562 3.9961-5.5586 6.6016-9.8867 6.6016-5.9102-0.007812-10.699-4.8008-10.699-10.711zm10.703 79.59h-0.003907c4.2344-0.003906 8.3008 1.6719 11.297 4.6641 2.9961 2.9883 4.6836 7.0508 4.6875 11.285 0.003906 4.2344-1.6758 8.2969-4.668 11.293-2.9922 2.9961-7.0508 4.6797-11.289 4.6836-4.2344 0-8.293-1.6797-11.289-4.6758-2.9961-2.9922-4.6797-7.0547-4.6797-11.289 0.003906-4.2266 1.6836-8.2812 4.6719-11.273 2.9883-2.9883 7.043-4.6719 11.27-4.6797zm122.18 224.14c-9.5938 4.7148-62.082 27.77-127.55 27.77-49.824-0.78125-92.023-15.465-116.82-27.629-1.6562-0.82031-2.5742-2.6328-2.25-4.457 6.4727-36.285 20.477-70.816 41.102-101.36 20.625-30.551 47.418-56.445 78.652-76.016 4.5273 0.8125 9.1875 0.4375 13.531-1.082 27.645 19.207 51.355 43.531 69.852 71.66 29.285 44.883 42.965 85.602 45.781 106.83h-0.003906c0.23828 1.7734-0.68359 3.5-2.2891 4.2852z"/>
  <path d="m477.05 472.16c-1.4961 0 1.5117 0.023438 0 0z"/>
  <path d="m477.16 446.89c-1.3008 0 1.3047 0.019531 0 0z"/>
  <path d="m549.24 330.18c-14.973-22.965-33.754-43.207-55.539-59.844-2.4258-1.8594-5.375-2.9023-8.4258-2.9844-3.0547-0.082031-6.0547 0.80469-8.5742 2.5273-49.398 33.668-84.957 84.062-100.12 141.89-0.91016 3.4297-0.53125 7.0703 1.0703 10.238 1.5977 3.1641 4.3047 5.6328 7.6055 6.9336 29.332 11.363 60.445 17.441 91.898 17.949 44.465 0 83.84-11.398 102.19-18.203 3.4531-1.2812 6.293-3.8242 7.9453-7.1133 1.6523-3.293 1.9961-7.0898 0.95703-10.625-4.3281-14.461-15.148-44.199-39.008-80.766zm-30.855-22.238c7.9492 8.832 15.203 18.266 21.695 28.219 7.5586 11.547 14.449 23.523 20.637 35.863-2.7344 2.4453-5.2656 5.1094-7.5664 7.9688-11.266-31.258-36.68-52.582-47.711-60.691h0.003906c3.9219-4.2109 8.2578-8.0156 12.941-11.359zm-94.34 28.293c16.109-22.391 36.016-41.789 58.812-57.32 1.2773-0.87109 2.9688-0.82812 4.1953 0.10938 8.3906 6.418 16.328 13.406 23.762 20.914-32.219 23.777-39.703 59.191-41.195 79.281-16.809-24.945-37.113-35.602-47.84-39.762 0.75781-1.0781 1.5-2.1562 2.2656-3.2227zm-34.781 82.531c-1.668-0.66016-2.5742-2.4609-2.1133-4.1914 3.1484-11.867 7.1914-23.477 12.094-34.73 8.1523 2.2539 15.934 5.6953 23.086 10.211 16.684 10.531 28.176 25.602 34.27 44.844-23.094-2.1719-45.766-7.6055-67.336-16.133zm87.973 17.188c-2.375-0.039063-6.6211-0.13672-8.9883-0.24219-8.1445-29.672-26.344-46.332-40.496-55.168h-0.003906c-7.4297-4.6406-15.449-8.2578-23.844-10.758 3.5312-7.1719 7.4297-14.16 11.672-20.938 5.6328 2.0078 11.012 4.6602 16.039 7.8984 10.137 6.4453 24.574 18.641 35.789 40.117h-0.003906c1.1719 2.2812 3.5156 3.7188 6.0781 3.7188 0.65234 0 1.2969-0.089843 1.9219-0.26953 3.1562-0.875 5.2461-3.8672 4.9844-7.1328-0.58984-11.355 0.58984-22.73 3.5-33.723 12.008 5.7031 41.098 22.688 54.578 58.188-0.21094 3.8359-0.10547 7.6836 0.32031 11.504-20.223 4.3945-40.848 6.6758-61.543 6.8047zm64.887-36.465c-16.871-30.797-43.691-45.512-54.883-50.562l-0.003907-0.003906c2.8164-7.5 6.5977-14.602 11.246-21.125 10.594 7.7969 38.621 31.094 46.891 64.168-1.2383 2.4375-2.3242 4.9492-3.2461 7.5234zm33.414 18.941c-8.3438 3.0938-17.086 5.8086-26.02 8.1328h-0.003906c-1.4805-16.398 4.4375-32.602 16.141-44.188 4.7461 10.285 8.793 20.879 12.109 31.711 0.51562 1.8047-0.45703 3.7031-2.2227 4.3438z"/>
 
 </g>
</svg>
