<?xml version="1.0" encoding="UTF-8"?>
<svg fill='#fff' width="700pt" height="700pt" version="1.1" viewBox="0 0 700 700" xmlns="http://www.w3.org/2000/svg" xmlns:xlink="http://www.w3.org/1999/xlink">
 <defs>
 
 </defs>
 <g>
  <path d="m164.8 356.17c-14.727 10.148-18.453 30.375-8.3086 45.102 4.9102 7.1289 12.309 11.93 20.832 13.496 1.9805 0.35938 3.9688 0.54297 5.9453 0.54297 6.5078 0 12.852-1.9609 18.324-5.7305 7.1328-4.9102 11.93-12.305 13.496-20.828 1.5664-8.5195-0.26953-17.141-5.1797-24.27-10.148-14.727-30.387-18.461-45.109-8.3125zm39.266 30.555c-1.0312 5.5781-4.168 10.414-8.8359 13.637-4.6641 3.2148-10.316 4.4297-15.887 3.3867-5.5781-1.0234-10.414-4.1602-13.637-8.832-3.2188-4.6719-4.4258-10.309-3.3945-15.887s4.168-10.414 8.832-13.641c9.6484-6.625 22.895-4.1953 29.523 5.4492 3.2227 4.668 4.4297 10.309 3.3984 15.887z"/>
  <path d="m247.88 404.02c-14.309-10.73-34.668-7.8164-45.395 6.4922-5.1953 6.9258-7.3789 15.473-6.1562 24.047 1.2266 8.5742 5.7188 16.156 12.652 21.348 5.668 4.2578 12.414 6.4922 19.375 6.4922 1.5469 0 3.1094-0.11719 4.6641-0.33594 8.5742-1.2305 16.156-5.7188 21.348-12.656 5.1953-6.9258 7.3789-15.469 6.1562-24.039-1.2266-8.582-5.7188-16.152-12.645-21.348zm-2.4688 38.676c-3.3984 4.5352-8.3672 7.4766-13.977 8.2812-5.6094 0.80469-11.199-0.62891-15.742-4.0273-4.5352-3.3984-7.4766-8.3672-8.2812-13.977-0.80469-5.6172 0.62891-11.207 4.0273-15.746 7.0273-9.3594 20.355-11.262 29.719-4.25 4.5352 3.3984 7.4766 8.3672 8.2812 13.977 0.80469 5.6172-0.625 11.203-4.0273 15.742z"/>
  <path d="m296.48 429.39c-8.2266-2.7109-17.012-2.0664-24.754 1.8242-7.7344 3.8906-13.492 10.574-16.207 18.793-2.7148 8.2227-2.0664 17.02 1.832 24.754 3.8984 7.7383 10.574 13.492 18.793 16.207 3.3438 1.1016 6.7812 1.6562 10.203 1.6562 4.9961 0 9.957-1.1719 14.547-3.4844 7.7344-3.8906 13.496-10.574 16.211-18.793 5.6016-16.984-3.6523-35.355-20.625-40.957zm9.9922 37.441c-1.7734 5.3867-5.543 9.7539-10.613 12.305-5.0586 2.5547-10.812 2.9727-16.207 1.1992-5.3828-1.7734-9.7539-5.543-12.305-10.613-2.5547-5.0625-2.9727-10.82-1.1992-16.207 1.7734-5.3867 5.543-9.7539 10.605-12.305 3.0078-1.5195 6.2539-2.2773 9.5273-2.2773 2.2383 0 4.4922 0.35938 6.6797 1.082 11.117 3.6719 17.18 15.703 13.512 26.816z"/>
  <path d="m350.63 437.94c-8.6641 0.050782-16.789 3.4648-22.875 9.625-6.0859 6.1602-9.418 14.32-9.3672 22.98 0.042969 8.6641 3.4648 16.789 9.6211 22.875 6.1133 6.0469 14.203 9.375 22.797 9.375h0.18359c17.879-0.10156 32.344-14.723 32.25-32.602-0.050782-8.6641-3.4648-16.789-9.625-22.875-6.1602-6.0977-14.379-9.4883-22.984-9.3789zm0.29297 53.656c-5.543 0.15234-11.008-2.1523-15.047-6.1367-4.0312-3.9883-6.2656-9.3008-6.3008-14.973v-0.003906c-0.035156-5.668 2.1445-11.008 6.1328-15.043 3.9883-4.0312 9.3086-6.2656 14.973-6.3008h0.125c5.6211 0 10.922 2.1797 14.926 6.1367 4.0312 3.9883 6.2734 9.3086 6.3008 14.973 0.0625 11.703-9.4062 21.277-21.109 21.348z"/>
  <path d="m429.46 430.36c-7.7891-3.8203-16.582-4.3672-24.77-1.5586-8.1914 2.8047-14.805 8.6367-18.621 16.414-3.8086 7.7852-4.3633 16.574-1.5586 24.773 2.8047 8.1914 8.6367 14.805 16.414 18.613 4.5117 2.2109 9.3594 3.3281 14.234 3.3281 3.5391 0 7.0898-0.58203 10.535-1.7656 8.1914-2.8047 14.805-8.6367 18.621-16.414 3.8086-7.7852 4.3633-16.574 1.5586-24.773-2.8047-8.1953-8.6328-14.809-16.414-18.617zm4.7969 38.461c-2.4922 5.0898-6.8203 8.9102-12.188 10.742-5.3633 1.832-11.121 1.4727-16.211-1.0195-5.0898-2.4922-8.9102-6.8281-10.742-12.191-1.8359-5.3633-1.4766-11.121 1.0195-16.219 2.4922-5.0898 6.8203-8.9102 12.188-10.742 2.25-0.77344 4.5742-1.1602 6.8945-1.1602 3.1914 0 6.3672 0.73438 9.3203 2.1797 5.0898 2.4922 8.9102 6.8281 10.742 12.191 1.832 5.3633 1.4727 11.129-1.0234 16.219z"/>
  <path d="m453.01 402.89c-6.875 5.2695-11.285 12.902-12.414 21.492-1.1328 8.5859 1.1484 17.102 6.418 23.973 6.3789 8.3164 16.023 12.684 25.77 12.684 6.8828 0 13.828-2.1836 19.695-6.6797 14.191-10.879 16.879-31.281 5.9961-45.465-5.2695-6.875-12.902-11.285-21.488-12.414-8.6055-1.1367-17.105 1.1484-23.977 6.4102zm36.574 12.812c7.1172 9.2891 5.3594 22.641-3.9258 29.758-9.2852 7.1289-22.637 5.3633-29.766-3.9219-3.4492-4.5039-4.9375-10.074-4.1992-15.695 0.73828-5.6211 3.6289-10.617 8.125-14.066 9.293-7.1211 22.637-5.3555 29.766 3.9258z"/>
  <path d="m535.56 354.13c-14.836-9.9727-35.023-6.0273-45.008 8.8047-4.8398 7.1914-6.5859 15.824-4.918 24.332 1.6641 8.5078 6.5352 15.848 13.727 20.68 5.5391 3.7227 11.828 5.5039 18.047 5.5039 10.445 0 20.703-5.0195 26.953-14.312 9.9805-14.828 6.0312-35.023-8.8008-45.008zm-0.48828 38.758c-6.5352 9.7109-19.762 12.293-29.461 5.7617-4.7031-3.1602-7.8945-7.9688-8.9805-13.535-1.0938-5.5664 0.054688-11.223 3.2188-15.926 4.0938-6.0859 10.812-9.375 17.645-9.375 4.0703 0 8.1875 1.1719 11.809 3.6133 9.7109 6.5352 12.301 19.758 5.7695 29.461z"/>
  <path d="m561.64 294.08c1.0117-8.4844 1.6055-17.086 1.6055-25.648 0-117.8-95.84-213.63-213.64-213.63s-213.63 95.832-213.63 213.63c0 10.781 0.29297 17.941 1.8242 28.117-11.715 7.5391-17.68 22.125-13.652 36.199 4.0703 14.219 17.086 23.508 31.191 23.508 2.9453 0 5.9414-0.40234 8.9102-1.2617 17.191-4.9219 27.172-22.91 22.254-40.098-4.7227-16.496-21.469-26.305-38.02-22.734-1.0977-8.1211-1.3047-14.32-1.3047-23.727 0-111.62 90.816-202.43 202.43-202.43 111.62 0 202.44 90.816 202.44 202.43 0 7.1641-0.48828 14.336-1.2383 21.449-16.445-3.1875-32.891 6.7969-37.402 23.23-4.7305 17.242 5.4492 35.117 22.691 39.848 2.8633 0.78906 5.7383 1.1641 8.5742 1.1641 14.242 0 27.332-9.4688 31.281-23.852 3.8945-14.211-2.3477-28.836-14.316-36.195zm-385.91 23.906c3.2188 11.25-3.3164 23.023-14.566 26.246-11.273 3.2305-23.031-3.3164-26.254-14.57-3.2188-11.25 3.3164-23.023 14.566-26.254 11.258-3.1914 23.035 3.3281 26.254 14.578zm389.43 9.3242c-3.0977 11.289-14.789 17.93-26.09 14.852-11.289-3.1016-17.953-14.805-14.852-26.09 3.1016-11.285 14.824-17.93 26.09-14.844 5.4727 1.5 10.023 5.0352 12.828 9.9609 2.8086 4.9258 3.5234 10.656 2.0234 16.121z"/>
 
 </g>
</svg>
