<?xml version="1.0" encoding="UTF-8"?>
<svg fill='#fff' width="700pt" height="700pt" version="1.1" viewBox="0 0 700 700" xmlns="http://www.w3.org/2000/svg" xmlns:xlink="http://www.w3.org/1999/xlink">
 <defs>

 </defs>
 <g>
  <path d="m260.07 503.65c40.523 0 73.488-32.969 73.488-73.484 0-34.551-53.207-143.82-65.871-169.35 9.1211-1.9414 17.047-7.168 22.371-14.875 5.543-8.0117 7.6328-17.695 5.8906-27.281-1.7461-9.582-7.1172-17.91-15.133-23.453-2.3086-1.5977-4.7617-2.8711-7.3008-3.8867 2.0312-2.7734 3.2695-6.1562 3.2695-9.8438 0-6.8945-4.1953-12.82-10.164-15.371l0.36328-27.48c0.015625-1.4961-0.56641-2.9336-1.6133-4.0039-1.0547-1.0625-2.4883-1.668-3.9883-1.668h-0.93359c-12.887 0-23.363-14.895-23.363-33.207s10.477-33.203 23.816-33.203h0.003906c6.1758 0.085937 11.949 2.5586 16.258 6.9844 4.2578 4.3672 6.5781 10.125 6.5586 16.219-0.125 1.5273-0.14453 5.8633 2.9023 9.6367 1.8125 2.2383 5.3477 5.0117 11.879 5.4414 3.1523 0.16797 5.7578-2.1328 5.957-5.2266 0.20312-3.0859-2.1328-5.75-5.2188-5.9531-1.8711-0.11719-3.2812-0.58203-3.8711-1.2656-0.51953-0.59766-0.49219-1.5352-0.50391-1.5469 0.035156-0.24219 0.054687-0.48828 0.054687-0.72656 0.11719-9.168-3.3359-17.832-9.7344-24.387-6.3945-6.5703-14.965-10.246-24.148-10.371-0.015625 0-0.57031-0.003906-0.58984-0.003906-19.059 0-34.562 19.926-34.562 44.406 0 22.422 13.004 41.016 29.832 43.988l-0.28516 21.758c-6.957 2.0234-12.086 8.3828-12.086 15.98 0 3.6797 1.2305 7.0547 3.2539 9.8164-6.6406 2.6211-12.363 7.1406-16.52 13.145-11.441 16.535-7.2969 39.305 9.2344 50.746 4.0273 2.7891 8.5 4.6094 13.156 5.6016-12.641 25.465-65.891 134.82-65.891 169.39 0 40.504 32.969 73.473 73.488 73.473zm0-11.203c-34.344 0-62.289-27.938-62.289-62.281 0-29.926 46.688-127.64 62.289-159.45 15.598 31.801 62.289 129.52 62.289 159.45-0.003906 34.34-27.941 62.281-62.289 62.281zm0-316.5c3.0391 0 5.5234 2.4766 5.5234 5.5156 0 3.0469-2.4766 5.5234-5.5234 5.5234s-5.5234-2.4766-5.5234-5.5234c0.003907-3.0391 2.4766-5.5156 5.5234-5.5156zm-20.781 34.859c3.8398-5.5508 9.6094-9.2695 16.25-10.477 1.5273-0.28125 3.0586-0.41406 4.5742-0.41406 5.0898 0 10.051 1.5352 14.332 4.4961 5.5508 3.8398 9.2734 9.6133 10.484 16.25 1.2109 6.6406-0.23438 13.355-4.082 18.898-3.8398 5.5508-9.6133 9.2734-16.25 10.484-6.6367 1.2266-13.352-0.23438-18.906-4.082-11.457-7.9258-14.324-23.703-6.4023-35.156z"/>
  <path d="m440.3 503.65c40.523 0 73.488-32.969 73.488-73.484 0-34.551-53.207-143.82-65.871-169.35 9.1211-1.9414 17.047-7.168 22.371-14.875 5.543-8.0117 7.6328-17.695 5.8906-27.281-1.7461-9.582-7.1172-17.91-15.133-23.453-2.3242-1.6055-4.7812-2.8789-7.3086-3.8789 2.0391-2.7734 3.2812-6.1602 3.2812-9.8516 0-6.8945-4.1953-12.82-10.164-15.371l0.36328-27.48c0.015625-1.4961-0.56641-2.9336-1.6133-4.0039-1.0547-1.0625-2.4883-1.668-3.9883-1.668h-0.93359c-12.887 0-23.363-14.895-23.363-33.207s10.477-33.203 23.816-33.203h0.003906c6.1758 0.085937 11.949 2.5586 16.258 6.9844 4.2617 4.3672 6.5859 10.125 6.5586 16.219-0.125 1.5352-0.15234 5.8633 2.9023 9.6367 1.8125 2.2383 5.3477 5.0117 11.879 5.4414 3.1484 0.16797 5.7578-2.1328 5.957-5.2266 0.20313-3.0859-2.1328-5.75-5.2188-5.9531-1.8711-0.11719-3.2812-0.58203-3.8633-1.2656-0.51953-0.59766-0.49219-1.5273-0.50391-1.5391 0.035156-0.24609 0.054687-0.49219 0.054687-0.73438 0.11719-9.168-3.3359-17.832-9.7344-24.387-6.4023-6.5703-14.969-10.246-24.148-10.371-0.015625 0-0.57031-0.003906-0.58984-0.003906-19.059 0-34.562 19.926-34.562 44.406 0 22.422 13.004 41.016 29.832 43.988l-0.28516 21.758c-6.957 2.0234-12.086 8.3828-12.086 15.98 0 3.6914 1.2383 7.0742 3.2773 9.8438-6.4727 2.5586-12.293 6.9766-16.543 13.121-11.441 16.535-7.2969 39.305 9.2344 50.746 4.0273 2.7891 8.5 4.6094 13.156 5.6016-12.641 25.465-65.891 134.82-65.891 169.39-0.011719 40.5 32.953 73.469 73.477 73.469zm0-11.203c-34.344 0-62.289-27.938-62.289-62.281 0-29.926 46.688-127.64 62.289-159.45 15.598 31.801 62.289 129.52 62.289 159.45 0 34.34-27.945 62.281-62.289 62.281zm0-316.5c3.0391 0 5.5234 2.4766 5.5234 5.5156 0 3.0469-2.4766 5.5234-5.5234 5.5234s-5.5234-2.4766-5.5234-5.5234c0-3.0391 2.4805-5.5156 5.5234-5.5156zm-20.777 34.859c4.8984-7.0859 12.797-10.879 20.816-10.879 4.957 0 9.9688 1.457 14.348 4.4844 5.5508 3.8398 9.2734 9.6133 10.484 16.25 1.2109 6.6367-0.24219 13.355-4.082 18.898-3.8398 5.5508-9.6133 9.2734-16.25 10.484-6.6367 1.2266-13.355-0.23438-18.906-4.082-11.473-7.9258-14.34-23.703-6.4102-35.156z"/>
 
 </g>
</svg>
