<?xml version="1.0" encoding="UTF-8"?>
<svg fill='#fff' width="700pt" height="700pt" version="1.1" viewBox="0 0 700 700" xmlns="http://www.w3.org/2000/svg" xmlns:xlink="http://www.w3.org/1999/xlink">
 <defs>
  
 </defs>
 <g>
  <path d="m474.88 79.52h-249.76c-21.246-0.015625-40.973 11.012-52.082 29.121l-67.758 108.64c-1.3359 2.1133-1.1055 4.8555 0.55859 6.7188l240.24 254.8c1.0664 1.2031 2.5938 1.8945 4.2031 1.8945 1.6055 0 3.1367-0.69141 4.1992-1.8945l239.68-254.8c1.6641-1.8633 1.8945-4.6055 0.55859-6.7188l-67.199-108.64c-11.211-18.281-31.195-29.336-52.641-29.121zm-54.879 11.199 26.32 123.76h-191.52l24.641-123.76zm-238 24.082c9.1406-14.699 25.25-23.602 42.559-23.52h43.121l-24.078 123.2h-123.76zm-58.801 110.88h120.96l89.602 223.44zm226.8 234.08-93.52-234.08h187.6zm16.238-10.078 90.16-224h120.4zm91.84-235.2-26.316-123.77h43.68c17.418 0.039062 33.555 9.168 42.559 24.082l62.16 99.68z"/>
 </g>
</svg>
