<?xml version="1.0" encoding="UTF-8"?>
<svg fill='#fff' width="700pt" height="700pt" version="1.1" viewBox="0 0 700 700" xmlns="http://www.w3.org/2000/svg" xmlns:xlink="http://www.w3.org/1999/xlink">
 <defs>

 </defs>
 <g>
  <path d="m568.4 56c-3.0938 0-5.6016 2.5078-5.6016 5.6016 0 117.34-95.461 212.8-212.8 212.8-117.33-0.003906-212.8-95.465-212.8-212.8 0-3.0938-2.5078-5.6016-5.6016-5.6016s-5.6016 2.5078-5.6016 5.6016c0 75.688 37.766 142.68 95.406 183.25-7.4414 0.94141-14.621 3.5742-21.027 7.8828-10.797 7.2617-18.117 18.293-20.613 31.059-2.5 12.77 0.125 25.746 7.3867 36.543 7.2617 10.797 18.293 18.113 31.059 20.613 3.1484 0.61328 6.3125 0.91797 9.4531 0.91797 9.5859 0 18.957-2.8398 27.09-8.3086 10.797-7.2617 18.113-18.293 20.613-31.059 2.1055-10.777 0.52734-21.691-4.375-31.324 18.301 6.9219 37.73 11.516 57.938 13.41-3.8047 4.6875-6.1836 10.574-6.1836 17.07 0 4.4961 0.85156 9.2344 2.5 14.117-40.844 10.953-71.047 48.184-71.047 92.438 0.007813 52.82 42.98 95.793 95.805 95.793s95.797-42.973 95.797-95.797c0-44.242-30.188-81.465-71.016-92.43 1.6133-4.8594 2.4648-9.5977 2.4648-14.125 0-6.4922-2.3789-12.383-6.1836-17.07 23.973-2.2461 46.848-8.2891 68.043-17.516-10.012 15.832-10.418 36.754 0.6875 53.27 7.2617 10.797 18.297 18.113 31.062 20.613 3.1484 0.61328 6.3125 0.92188 9.4531 0.92188 9.5859 0 18.957-2.8398 27.086-8.3125 22.285-14.988 28.219-45.316 13.227-67.598-7.2617-10.797-18.293-18.117-31.062-20.613-3.4766-0.68359-6.9688-0.94922-10.43-0.87891 57.336-40.609 94.871-107.41 94.871-182.86 0-3.0938-2.5078-5.6016-5.6016-5.6016zm-304.02 244.34c-1.9219 9.832-7.5625 18.328-15.871 23.922-8.3164 5.5938-18.312 7.6016-28.141 5.6914-9.832-1.9219-18.328-7.5625-23.922-15.871-5.5938-8.3164-7.6133-18.305-5.6875-28.141 1.9219-9.832 7.5625-18.328 15.871-23.922s18.301-7.625 28.137-5.6875c9.832 1.9219 18.328 7.5625 23.922 15.871 5.5938 8.3125 7.6133 18.305 5.6914 28.137zm223.04-44.008c9.832 1.9219 18.328 7.5625 23.922 15.871 5.5898 8.3125 7.6133 18.305 5.6875 28.137-1.9219 9.832-7.5625 18.328-15.871 23.922-17.152 11.551-40.512 6.9766-52.059-10.184-11.543-17.16-6.9727-40.516 10.188-52.059 8.3047-5.5938 18.293-7.6133 28.133-5.6875zm-143.02 67.555v32.285c-15.016 1.6055-28.109 9.6094-36.598 21.195l-28.07-16.207c14.219-21.164 37.754-35.496 64.668-37.273zm46.738 84.312c0 22.68-18.453 41.137-41.137 41.137-22.68 0-41.137-18.453-41.137-41.137 0-22.68 18.453-41.137 41.137-41.137 22.68 0 41.137 18.457 41.137 41.137zm-116.95-37.301 27.98 16.156c-2.875 6.4766-4.5039 13.621-4.5039 21.148 0 7.5273 1.6289 14.676 4.5039 21.148l-27.98 16.152c-5.5703-11.27-8.7852-23.902-8.7852-37.301 0-13.402 3.2148-26.035 8.7852-37.305zm5.543 84.34 28.07-16.207c8.4922 11.586 21.586 19.59 36.598 21.195v32.285c-26.914-1.7734-50.449-16.105-64.668-37.273zm75.871 37.273v-32.285c15.012-1.6055 28.105-9.6094 36.598-21.195l28.07 16.207c-14.219 21.168-37.754 35.5-64.668 37.273zm70.211-47.008-27.98-16.152c2.875-6.4766 4.5039-13.621 4.5039-21.148 0-7.5273-1.6289-14.672-4.5039-21.148l27.98-16.156c5.5703 11.27 8.7852 23.902 8.7852 37.301s-3.2148 26.031-8.7852 37.305zm-5.543-84.34-28.07 16.207c-8.4883-11.586-21.582-19.59-36.598-21.195v-32.285c26.914 1.7734 50.449 16.105 64.668 37.273zm-54.223-59.52c0 3.6992-0.81641 7.6875-2.3398 11.855-4.4883-0.64844-9.043-1.0977-13.707-1.0977-4.6445 0-9.1758 0.44531-13.648 1.0859-1.5625-4.1992-2.4023-8.1875-2.4023-11.848 0.003906-8.8438 7.2031-16.043 16.051-16.043s16.047 7.1992 16.047 16.047z"/>
 
 </g>
</svg>
