<?xml version="1.0" encoding="UTF-8"?>
<svg fill='#fff' width="700pt" height="700pt" version="1.1" viewBox="0 0 700 700" xmlns="http://www.w3.org/2000/svg" xmlns:xlink="http://www.w3.org/1999/xlink">
 
 <g>
  <path d="m349.07 117.83c-53.172 0.21875-104.09 21.527-141.55 59.254-37.473 37.727-58.438 88.785-58.293 141.96s21.387 104.11 59.059 141.64c37.676 37.523 88.703 58.559 141.88 58.484 53.172-0.070312 104.14-21.246 141.71-58.867 37.574-37.625 58.68-88.625 58.68-141.8-0.15234-53.316-21.453-104.39-59.23-142.02-37.777-37.621-88.938-58.715-142.25-58.652zm0 389.67c-50.078-0.21484-98.023-20.297-133.3-55.836-35.285-35.539-55.023-83.629-54.879-133.71 0.14453-50.078 20.16-98.051 55.645-133.39 35.488-35.336 83.547-55.141 133.63-55.066 50.078 0.070313 98.078 20.016 133.46 55.449 35.387 35.438 55.262 83.469 55.262 133.55-0.15234 50.223-20.223 98.328-55.812 133.77-35.586 35.434-83.781 55.301-134 55.234z"/>
  <path d="m572.96 298.12c-0.14063-1.7383-0.33984-3.5-0.54688-5.2969-0.67578-5.9492-1.5508-11.852-2.8477-18.457l-0.26953-1.4922c-1.2383-5.9609-2.8242-12.109-4.8398-18.785-0.48828-1.6211-1.0156-3.2305-1.6562-5.1562-1.6445-5.0156-3.5-9.9531-5.4258-14.77l-1.5273-3.8633c-2.4492-5.6914-5.1797-11.234-8.0742-16.672-0.75781-1.4336-1.5625-2.8242-2.8359-5.0391-2.332-4.1055-4.7734-8.168-7.3398-12.039l-3.1016-4.75c-3.3594-4.875-6.9102-9.5977-10.652-14.164-0.93359-1.168-1.9023-2.332-2.8828-3.3828l-1.25-1.4453c-2.7891-3.2539-5.6836-6.418-9.043-9.8828-1.457-1.5156-2.918-3.0352-4.4102-4.5039-4.1172-4.0117-8.3633-7.8867-12.832-11.574-1.2266-1.0156-2.4727-1.9844-3.7227-2.9414l-1.5391-1.168c-3.207-2.4961-6.4648-4.9453-9.8125-7.3047-2.0781-1.4453-4.1289-2.8828-6.2305-4.2695-4.1523-2.6953-8.3516-5.3086-12.672-7.7461l-7.0586-21.164 0.007813 0.007812c-1.418-4.2891-4.1484-8.0195-7.8086-10.668-3.6562-2.6484-8.0586-4.082-12.574-4.0898h-23.684c-1.5469-0.003906-3.0312 0.60938-4.1289 1.7031l-9.6484 9.6602-2.332-0.30469-0.5-0.058594 44.113-43.914-0.003907 0.003906c0.53906-0.54297 0.96875-1.1836 1.2578-1.8906 0.60547-1.4414 0.60547-3.0625 0-4.5039-0.28906-0.70312-0.71875-1.3438-1.2578-1.8789l-27.266-27.113c-1.0938-1.0898-2.5742-1.7031-4.1172-1.7031h-108.9c-1.543 0-3.0234 0.61328-4.1172 1.7031l-27.219 27.113c-0.53906 0.53516-0.96875 1.1758-1.2617 1.8789-0.60156 1.4414-0.60156 3.0625 0 4.5039 0.29297 0.70703 0.72266 1.3477 1.2617 1.8906l43.949 43.762-2.8125 0.42188-9.5547-9.5664v-0.003906c-1.0977-1.0938-2.582-1.707-4.1289-1.7031h-23.684c-4.5195-0.003906-8.9258 1.418-12.594 4.0625-3.668 2.6406-6.4102 6.3711-7.8359 10.66l-6.6602 19.984c-0.31641 0.17578-0.62891 0.375-0.95703 0.54688l-1.7266 1.0273c-3.9414 2.2383-7.8047 4.5625-11.598 7-2.0312 1.3086-4.0469 2.6484-6.043 4.0469-3.9219 2.7305-7.7461 5.5781-11.992 8.9492-1.457 1.168-2.918 2.332-4.3164 3.5-4.1055 3.4414-8.0508 7-11.887 10.758-1.6094 1.5547-3.1992 3.1523-4.7734 4.7969-3.2188 3.3125-6.332 6.7266-9.332 10.242l-1.2383 1.4102c-0.73438 0.81641-1.457 1.6562-2.1484 2.4844-3.8281 4.668-7.4102 9.4844-10.863 14.453-0.83984 1.168-1.6211 2.4141-2.4023 3.6406l-0.875 1.3086c-2.5977 3.9883-5.0781 8.0664-7.4414 12.227l-2.6016 4.5625c-2.9414 5.4961-5.6836 11.152-8.168 16.812-0.42188 0.96875-0.81641 1.9609-1.168 2.9414l-0.55859 1.3984c-1.9375 4.7539-3.7109 9.5859-5.3203 14.5l-0.43359 1.2734c-0.41016 1.2617-0.82812 2.5078-1.168 3.7461-2.0195 6.6602-3.6172 12.832-4.875 18.852l-0.52344 2.9531c-1.0859 5.6133-1.9492 11.305-2.6016 17.047-0.21094 1.7969-0.41016 3.582-0.58203 5.3906-0.6875 7.7578-1.0273 14.234-1.0273 20.406v-0.003907c0 59.641 23.691 116.84 65.863 159.01s99.371 65.863 159.01 65.863c59.641 0 116.84-23.691 159.01-65.863s65.863-99.371 65.863-159.01c-0.023438-6.1953-0.35156-12.668-1.0625-20.359zm-290.5-241.84h23.102l21.363 42.547h-1.7383zm78.75-27.113 15.504 15.445h-53.43l15.504-15.445zm20.16 27.113-21.281 42.406-20.137 0.082031-21.324-42.488zm-6.3359 42.34h-1.8555l21.258-42.352h23.102l-42.504 42.348zm42.5-54.004-24.297-0.003907-15.508-15.445h24.305zm-119.57-15.449h24.301l-15.504 15.445h-24.301zm51.102 501.67v-0.003907c-56.402 0.042969-110.52-22.285-150.48-62.094-39.957-39.805-62.496-93.836-62.668-150.24 0-5.832 0.31641-11.969 0.98047-19.355 0.15234-1.7031 0.35156-3.3828 0.54687-5.0977 0.62109-5.4453 1.4414-10.828 2.4609-16.148l0.5-2.8359c1.168-5.6719 2.6953-11.492 4.668-17.852 0.33984-1.168 0.71094-2.332 1.0859-3.4062l0.43359-1.3164c1.5391-4.668 3.207-9.2266 5.0625-13.766l1.6445-4.0938c2.332-5.4258 4.9219-10.746 7.6992-15.914l2.4844-4.3516c2.2148-3.9531 4.5859-7.8047 7-11.574l3.0898-4.668c3.2539-4.668 6.6602-9.2617 10.301-13.684l3.2305-3.7227c2.8477-3.3281 5.793-6.5625 8.8438-9.6953 1.5039-1.5508 3-3.0586 4.5391-4.5508 3.6406-3.5 7.375-7 11.258-10.207 1.3281-1.168 2.6953-2.1914 4.5742-3.6875 3.5586-2.8125 7.1758-5.5195 10.91-8.1094 1.8906-1.3086 3.7969-2.5859 5.7148-3.8398 3.5938-2.332 7.2578-4.5547 10.988-6.6602l1.9492-1.168c0.83984-0.5 1.6914-1.0039 2.5664-1.4688l0.003906 0.003906c1.3125-0.71094 2.3086-1.8906 2.7891-3.3008l7.375-22.168h-0.003907c1.3359-4.0234 5.0977-6.7422 9.3359-6.7422h21.27l9.9531 9.9648-0.003906-0.003907c1.3242 1.3398 3.2188 1.9453 5.0742 1.6211 2.9297-0.47656 8.6328-1.3398 14.223-2.1133l0.16406 0.16406v0.003906c1.0898 1.082 2.5664 1.6914 4.1055 1.6914h54.438c0.75391-0.003907 1.4961-0.15625 2.1914-0.44531 0.17578-0.070312 0.30469-0.21094 0.46484-0.29297l0.003906 0.003906c0.48828-0.22656 0.94141-0.51562 1.3516-0.86328h0.070312c1.3164 0.16406 2.6484 0.31641 4.2812 0.59375l5.168 0.64063c2.9531 0.375 5.9023 0.6875 5.9141 0.6875h0.003906c1.5469 0.003906 3.0312-0.60938 4.1289-1.7031l9.9531-9.9648 21.312 0.003906c4.2422 0 8 2.7188 9.3359 6.7422l7.7695 23.332c0.46484 1.3945 1.4414 2.5625 2.7305 3.2695 4.7734 2.625 9.332 5.4609 13.906 8.4102 2.0078 1.3086 3.9648 2.6836 5.9258 4.0586 3.1641 2.2227 6.2773 4.5391 9.332 6.9414l1.6094 1.25c1.168 0.875 2.332 1.75 3.3828 2.6602 4.1875 3.5 8.168 7.1758 12.109 10.977 1.4102 1.3633 2.7773 2.7891 4.5391 4.668 2.8242 2.918 5.5469 5.918 8.168 9.0078l1.3164 1.5156c0.88672 1.0039 1.75 1.9961 2.6016 3.0352 3.5 4.3633 6.918 8.832 10.09 13.441l2.9531 4.5156c2.4375 3.7227 4.75 7.5234 7.4648 12.297 0.73438 1.2969 1.4805 2.5781 2.1719 3.8867 2.7617 5.1562 5.3125 10.422 7.6523 15.797l1.4453 3.6523c1.8906 4.5977 3.5938 9.2734 5.2617 14.328 0.48828 1.5039 0.98047 3.0117 1.4453 4.5625 1.9375 6.3594 3.5 12.18 4.7734 18.773l0.22266 1.168c1.0742 5.4961 1.9141 11.07 2.5664 16.836 0.1875 1.6211 0.375 3.2305 0.5 4.875 0.67578 7.3164 0.99219 13.465 0.99219 19.32l0.003906-0.011719c-0.16406 56.426-22.707 110.48-62.684 150.3-39.973 39.824-94.109 62.16-150.54 62.113z"/>
 </g>
</svg>
