<svg width="83" height="28" viewBox="0 0 83 28" fill="none" xmlns="http://www.w3.org/2000/svg">
<path d="M28.9271 12.9124C32.3091 13.878 34 16.0021 34 19.285C34 21.6264 33.2291 23.461 31.6873 24.7886C30.1457 26.1162 27.9946 26.78 25.2345 26.78H13V1H24.9733C27.4102 1 29.3126 1.55519 30.6802 2.66556C32.0728 3.77594 32.7691 5.32081 32.7691 7.30018C32.7691 10.0278 31.4885 11.8986 28.9271 12.9124ZM24.563 3.93284H16.4689V11.9348H24.2273C25.8437 11.9348 27.0746 11.5728 27.9201 10.8485C28.7904 10.1244 29.2255 9.09851 29.2255 7.77088C29.2255 5.21219 27.6714 3.93284 24.563 3.93284ZM16.4689 23.8472H24.9733C28.6288 23.8472 30.4564 22.3265 30.4564 19.285C30.4564 16.2677 28.6288 14.759 24.9733 14.759H16.4689V23.8472Z" fill="white"/>
<path d="M59 26.78H55.2316L52.4877 19.2126H41.439L38.6219 26.78H35L45.0975 1H48.939L59 26.78ZM46.1585 6.5036L42.5365 16.2798H51.4268L47.878 6.5036L47.0366 3.82422L46.1585 6.5036Z" fill="white"/>
</svg>
