<svg width="65" height="29" viewBox="0 0 65 29" fill="none" xmlns="http://www.w3.org/2000/svg">
<path d="M18.8876 26.78C15.245 26.78 12.3531 25.5755 10.2119 23.1667C8.07063 20.7809 7 17.6655 7 13.8205C7 9.97553 8.08293 6.88331 10.2488 4.54389C12.39 2.1813 15.2573 1 18.8507 1C21.6073 1 24.0069 1.71804 26.0497 3.15412C28.0433 4.56704 29.2493 6.48954 29.6677 8.92162H26.1605C25.7667 7.3234 24.9422 6.0842 23.687 5.20402C22.4317 4.32384 20.8689 3.88375 18.9984 3.88375C16.3403 3.88375 14.2606 4.76393 12.7592 6.52429C11.2579 8.28465 10.5072 10.7167 10.5072 13.8205C10.5072 16.9475 11.2579 19.4143 12.7592 21.221C14.2606 23.0045 16.3403 23.8963 18.9984 23.8963C21.115 23.8963 22.8256 23.3288 24.13 22.1939C25.459 21.0357 26.2836 19.3679 26.6035 17.1906H30C29.5569 20.1787 28.3509 22.5296 26.382 24.2437C24.413 25.9346 21.9149 26.78 18.8876 26.78Z" fill="white"/>
<path d="M53 26.78H48.9332L39.4674 13.5279L35.2605 17.7642V26.78H32V1H35.2605V13.6366L47.9516 1H52.2989L41.7463 11.3916L53 26.78Z" fill="white"/>
</svg>
