<svg width="85" height="28" viewBox="0 0 85 28" fill="none" xmlns="http://www.w3.org/2000/svg">
<g clip-path="url(#clip0_16_15)">
<path d="M10.6023 3.54545V21H8.59091V3.54545H10.6023ZM19.6044 21.2727C18.4226 21.2727 17.3857 20.9915 16.4936 20.429C15.6072 19.8665 14.9141 19.0795 14.4141 18.0682C13.9197 17.0568 13.6726 15.875 13.6726 14.5227C13.6726 13.1591 13.9197 11.9687 14.4141 10.9517C14.9141 9.93466 15.6072 9.14489 16.4936 8.58239C17.3857 8.01989 18.4226 7.73864 19.6044 7.73864C20.7862 7.73864 21.8203 8.01989 22.7067 8.58239C23.5987 9.14489 24.2919 9.93466 24.7862 10.9517C25.2862 11.9687 25.5362 13.1591 25.5362 14.5227C25.5362 15.875 25.2862 17.0568 24.7862 18.0682C24.2919 19.0795 23.5987 19.8665 22.7067 20.429C21.8203 20.9915 20.7862 21.2727 19.6044 21.2727ZM19.6044 19.4659C20.5021 19.4659 21.2408 19.2358 21.8203 18.7756C22.3999 18.3153 22.8288 17.7102 23.1072 16.9602C23.3857 16.2102 23.5249 15.3977 23.5249 14.5227C23.5249 13.6477 23.3857 12.8324 23.1072 12.0767C22.8288 11.321 22.3999 10.7102 21.8203 10.2443C21.2408 9.77841 20.5021 9.54545 19.6044 9.54545C18.7067 9.54545 17.968 9.77841 17.3885 10.2443C16.8089 10.7102 16.38 11.321 16.1016 12.0767C15.8232 12.8324 15.6839 13.6477 15.6839 14.5227C15.6839 15.3977 15.8232 16.2102 16.1016 16.9602C16.38 17.7102 16.8089 18.3153 17.3885 18.7756C17.968 19.2358 18.7067 19.4659 19.6044 19.4659ZM33.9247 21.2727C32.7429 21.2727 31.706 20.9915 30.8139 20.429C29.9276 19.8665 29.2344 19.0795 28.7344 18.0682C28.2401 17.0568 27.9929 15.875 27.9929 14.5227C27.9929 13.1591 28.2401 11.9687 28.7344 10.9517C29.2344 9.93466 29.9276 9.14489 30.8139 8.58239C31.706 8.01989 32.7429 7.73864 33.9247 7.73864C35.1065 7.73864 36.1406 8.01989 37.027 8.58239C37.919 9.14489 38.6122 9.93466 39.1065 10.9517C39.6065 11.9687 39.8565 13.1591 39.8565 14.5227C39.8565 15.875 39.6065 17.0568 39.1065 18.0682C38.6122 19.0795 37.919 19.8665 37.027 20.429C36.1406 20.9915 35.1065 21.2727 33.9247 21.2727ZM33.9247 19.4659C34.8224 19.4659 35.5611 19.2358 36.1406 18.7756C36.7202 18.3153 37.1491 17.7102 37.4276 16.9602C37.706 16.2102 37.8452 15.3977 37.8452 14.5227C37.8452 13.6477 37.706 12.8324 37.4276 12.0767C37.1491 11.321 36.7202 10.7102 36.1406 10.2443C35.5611 9.77841 34.8224 9.54545 33.9247 9.54545C33.027 9.54545 32.2884 9.77841 31.7088 10.2443C31.1293 10.7102 30.7003 11.321 30.4219 12.0767C30.1435 12.8324 30.0043 13.6477 30.0043 14.5227C30.0043 15.3977 30.1435 16.2102 30.4219 16.9602C30.7003 17.7102 31.1293 18.3153 31.7088 18.7756C32.2884 19.2358 33.027 19.4659 33.9247 19.4659ZM42.9268 25.9091V7.90909H44.87V9.98864H45.1087C45.2564 9.76136 45.4609 9.47159 45.7223 9.11932C45.9893 8.76136 46.37 8.44318 46.8643 8.16477C47.3643 7.88068 48.0405 7.73864 48.8928 7.73864C49.995 7.73864 50.9666 8.0142 51.8075 8.56534C52.6484 9.11648 53.3047 9.89773 53.7763 10.9091C54.2479 11.9205 54.4837 13.1136 54.4837 14.4886C54.4837 15.875 54.2479 17.0767 53.7763 18.0938C53.3047 19.1051 52.6513 19.8892 51.8161 20.446C50.9808 20.9972 50.0178 21.2727 48.9268 21.2727C48.0859 21.2727 47.4126 21.1335 46.907 20.8551C46.4013 20.571 46.0121 20.25 45.7393 19.892C45.4666 19.5284 45.2564 19.2273 45.1087 18.9886H44.9382V25.9091H42.9268ZM44.9041 14.4545C44.9041 15.4432 45.049 16.3153 45.3388 17.071C45.6286 17.821 46.0518 18.4091 46.6087 18.8352C47.1655 19.2557 47.8473 19.4659 48.6541 19.4659C49.495 19.4659 50.1967 19.2443 50.7592 18.8011C51.3274 18.3523 51.7536 17.75 52.0376 16.9943C52.3274 16.233 52.4723 15.3864 52.4723 14.4545C52.4723 13.5341 52.3303 12.7045 52.0462 11.9659C51.7678 11.2216 51.3445 10.6335 50.7763 10.2017C50.2138 9.7642 49.5064 9.54545 48.6541 9.54545C47.8359 9.54545 47.1484 9.75284 46.5916 10.1676C46.0348 10.5767 45.6143 11.1506 45.3303 11.8892C45.0462 12.6222 44.9041 13.4773 44.9041 14.4545ZM61.0888 13.1932V6.90341H64.2763C64.532 6.90341 64.8104 6.97727 65.1115 7.125C65.4126 7.26705 65.6683 7.48864 65.8786 7.78977C66.0945 8.08523 66.2024 8.46023 66.2024 8.91477C66.2024 9.375 66.0916 9.76705 65.87 10.0909C65.6484 10.4091 65.3786 10.6506 65.0604 10.8153C64.7479 10.9801 64.4524 11.0625 64.174 11.0625H61.8729V10.0398H63.7479C63.9354 10.0398 64.1371 9.94602 64.353 9.75852C64.5746 9.57102 64.6854 9.28977 64.6854 8.91477C64.6854 8.52841 64.5746 8.26705 64.353 8.13068C64.1371 7.99432 63.9467 7.92614 63.782 7.92614H62.4695V13.1932H61.0888ZM64.8899 10.2273L66.4581 13.1932H64.9411L63.407 10.2273H64.8899ZM63.4751 16.9432C62.532 16.9432 61.6484 16.767 60.8246 16.4148C60.0007 16.0625 59.2763 15.5739 58.6513 14.9489C58.0263 14.3239 57.5376 13.5994 57.1854 12.7756C56.8331 11.9517 56.657 11.0682 56.657 10.125C56.657 9.18182 56.8331 8.2983 57.1854 7.47443C57.5376 6.65057 58.0263 5.92614 58.6513 5.30114C59.2763 4.67614 60.0007 4.1875 60.8246 3.83523C61.6484 3.48295 62.532 3.30682 63.4751 3.30682C64.4183 3.30682 65.3018 3.48295 66.1257 3.83523C66.9496 4.1875 67.674 4.67614 68.299 5.30114C68.924 5.92614 69.4126 6.65057 69.7649 7.47443C70.1172 8.2983 70.2933 9.18182 70.2933 10.125C70.2933 11.0682 70.1172 11.9517 69.7649 12.7756C69.4126 13.5994 68.924 14.3239 68.299 14.9489C67.674 15.5739 66.9496 16.0625 66.1257 16.4148C65.3018 16.767 64.4183 16.9432 63.4751 16.9432ZM63.4751 15.3068C64.4297 15.3068 65.299 15.0739 66.0831 14.608C66.8672 14.142 67.4922 13.517 67.9581 12.733C68.424 11.9489 68.657 11.0795 68.657 10.125C68.657 9.17045 68.424 8.30114 67.9581 7.51704C67.4922 6.73295 66.8672 6.10795 66.0831 5.64204C65.299 5.17614 64.4297 4.94318 63.4751 4.94318C62.5206 4.94318 61.6513 5.17614 60.8672 5.64204C60.0831 6.10795 59.4581 6.73295 58.9922 7.51704C58.5263 8.30114 58.2933 9.17045 58.2933 10.125C58.2933 11.0795 58.5263 11.9489 58.9922 12.733C59.4581 13.517 60.0831 14.142 60.8672 14.608C61.6513 15.0739 62.5206 15.3068 63.4751 15.3068Z" fill="#DAE3E3"/>
</g>
<defs>
<clipPath id="clip0_16_15">
<rect width="85" height="28" fill="white"/>
</clipPath>
</defs>
</svg>
