<svg width="65" height="29" viewBox="0 0 65 29" fill="none" xmlns="http://www.w3.org/2000/svg">
<path d="M28.5796 22.1091V1.0741H32V26.8519H27.8799L13.4205 5.92554V26.8519H10V1.0741H14.0035L28.5796 22.1091Z" fill="#DAE3E3"/>
<path d="M53.2509 24.6211C51.3927 26.1083 48.8092 26.8519 45.5 26.8519C42.1909 26.8519 39.62 26.1083 37.7873 24.6211C35.9291 23.1811 35 21.0802 35 18.3183V1.0741H38.5509V18.4245C38.5509 20.195 39.1364 21.5524 40.3073 22.4966C41.4782 23.4408 43.2091 23.9129 45.5 23.9129C47.791 23.9129 49.5219 23.4408 50.6928 22.4966C51.8636 21.5524 52.4492 20.195 52.4492 18.4245V1.0741H56V18.3183C56 21.0566 55.0837 23.1576 53.2509 24.6211Z" fill="#DAE3E3"/>
</svg>
