<svg width="97" height="28" viewBox="0 0 97 28" fill="none" xmlns="http://www.w3.org/2000/svg">
<g clip-path="url(#clip0_14_2)">
<path d="M17.8636 10.8409L16.0568 11.3523C15.9432 11.0511 15.7756 10.7585 15.554 10.4744C15.3381 10.1847 15.0426 9.94602 14.6676 9.75852C14.2926 9.57102 13.8125 9.47727 13.2273 9.47727C12.4261 9.47727 11.7585 9.66193 11.2244 10.0312C10.696 10.3949 10.4318 10.858 10.4318 11.4205C10.4318 11.9205 10.6136 12.3153 10.9773 12.6051C11.3409 12.8949 11.9091 13.1364 12.6818 13.3295L14.625 13.8068C15.7955 14.0909 16.6676 14.5256 17.2415 15.1108C17.8153 15.6903 18.1023 16.4375 18.1023 17.3523C18.1023 18.1023 17.8864 18.7727 17.4545 19.3636C17.0284 19.9545 16.4318 20.4205 15.6648 20.7614C14.8977 21.1023 14.0057 21.2727 12.9886 21.2727C11.6534 21.2727 10.5483 20.983 9.6733 20.4034C8.7983 19.8239 8.24432 18.9773 8.01136 17.8636L9.92045 17.3864C10.1023 18.0909 10.446 18.6193 10.9517 18.9716C11.4631 19.3239 12.1307 19.5 12.9545 19.5C13.892 19.5 14.6364 19.3011 15.1875 18.9034C15.7443 18.5 16.0227 18.017 16.0227 17.4545C16.0227 17 15.8636 16.6193 15.5455 16.3125C15.2273 16 14.7386 15.767 14.0795 15.6136L11.8977 15.1023C10.6989 14.8182 9.81818 14.3778 9.25568 13.7812C8.69886 13.179 8.42045 12.4261 8.42045 11.5227C8.42045 10.7841 8.62784 10.1307 9.04261 9.5625C9.46307 8.99432 10.0341 8.5483 10.7557 8.22443C11.483 7.90057 12.3068 7.73864 13.2273 7.73864C14.5227 7.73864 15.5398 8.02273 16.2784 8.59091C17.0227 9.15909 17.5511 9.90909 17.8636 10.8409ZM26.8232 7.90909V9.61364H20.0391V7.90909H26.8232ZM22.0163 4.77273H24.0277V17.25C24.0277 17.8182 24.1101 18.2443 24.2749 18.5284C24.4453 18.8068 24.6612 18.9943 24.9226 19.0909C25.1896 19.1818 25.4709 19.2273 25.7663 19.2273C25.9879 19.2273 26.1697 19.2159 26.3118 19.1932C26.4538 19.1648 26.5675 19.142 26.6527 19.125L27.0618 20.9318C26.9254 20.983 26.7351 21.0341 26.4908 21.0852C26.2464 21.142 25.9368 21.1705 25.5618 21.1705C24.9936 21.1705 24.4368 21.0483 23.8913 20.804C23.3516 20.5597 22.9027 20.1875 22.5447 19.6875C22.1925 19.1875 22.0163 18.5568 22.0163 17.7955V4.77273ZM38.0987 15.6477V7.90909H40.1101V21H38.0987V18.7841H37.9624C37.6555 19.4489 37.1783 20.0142 36.5305 20.4801C35.8828 20.9403 35.0646 21.1705 34.076 21.1705C33.2578 21.1705 32.5305 20.9915 31.8942 20.6335C31.2578 20.2699 30.7578 19.7244 30.3942 18.9972C30.0305 18.2642 29.8487 17.3409 29.8487 16.2273V7.90909H31.8601V16.0909C31.8601 17.0455 32.1271 17.8068 32.6612 18.375C33.201 18.9432 33.8885 19.2273 34.7237 19.2273C35.2237 19.2273 35.7322 19.0994 36.2493 18.8438C36.772 18.5881 37.2095 18.196 37.5618 17.6676C37.9197 17.1392 38.0987 16.4659 38.0987 15.6477ZM48.7372 21.2727C47.6463 21.2727 46.6832 20.9972 45.848 20.446C45.0128 19.8892 44.3594 19.1051 43.8878 18.0938C43.4162 17.0767 43.1804 15.875 43.1804 14.4886C43.1804 13.1136 43.4162 11.9205 43.8878 10.9091C44.3594 9.89773 45.0156 9.11648 45.8565 8.56534C46.6974 8.0142 47.669 7.73864 48.7713 7.73864C49.6236 7.73864 50.2969 7.88068 50.7912 8.16477C51.2912 8.44318 51.6719 8.76136 51.9332 9.11932C52.2003 9.47159 52.4077 9.76136 52.5554 9.98864H52.7259V3.54545H54.7372V21H52.794V18.9886H52.5554C52.4077 19.2273 52.1974 19.5284 51.9247 19.892C51.652 20.25 51.2628 20.571 50.7571 20.8551C50.2514 21.1335 49.5781 21.2727 48.7372 21.2727ZM49.0099 19.4659C49.8168 19.4659 50.4986 19.2557 51.0554 18.8352C51.6122 18.4091 52.0355 17.821 52.3253 17.071C52.6151 16.3153 52.7599 15.4432 52.7599 14.4545C52.7599 13.4773 52.6179 12.6222 52.3338 11.8892C52.0497 11.1506 51.6293 10.5767 51.0724 10.1676C50.5156 9.75284 49.8281 9.54545 49.0099 9.54545C48.1577 9.54545 47.4474 9.7642 46.8793 10.2017C46.3168 10.6335 45.8935 11.2216 45.6094 11.9659C45.331 12.7045 45.1918 13.5341 45.1918 14.4545C45.1918 15.3864 45.3338 16.233 45.6179 16.9943C45.9077 17.75 46.3338 18.3523 46.8963 18.8011C47.4645 19.2443 48.169 19.4659 49.0099 19.4659ZM58.7003 21V7.90909H60.7116V21H58.7003ZM59.723 5.72727C59.331 5.72727 58.9929 5.59375 58.7088 5.3267C58.4304 5.05966 58.2912 4.73864 58.2912 4.36364C58.2912 3.98864 58.4304 3.66761 58.7088 3.40057C58.9929 3.13352 59.331 3 59.723 3C60.1151 3 60.4503 3.13352 60.7287 3.40057C61.0128 3.66761 61.1548 3.98864 61.1548 4.36364C61.1548 4.73864 61.0128 5.05966 60.7287 5.3267C60.4503 5.59375 60.1151 5.72727 59.723 5.72727ZM69.7138 21.2727C68.532 21.2727 67.495 20.9915 66.603 20.429C65.7166 19.8665 65.0234 19.0795 64.5234 18.0682C64.0291 17.0568 63.782 15.875 63.782 14.5227C63.782 13.1591 64.0291 11.9687 64.5234 10.9517C65.0234 9.93466 65.7166 9.14489 66.603 8.58239C67.495 8.01989 68.532 7.73864 69.7138 7.73864C70.8956 7.73864 71.9297 8.01989 72.8161 8.58239C73.7081 9.14489 74.4013 9.93466 74.8956 10.9517C75.3956 11.9687 75.6456 13.1591 75.6456 14.5227C75.6456 15.875 75.3956 17.0568 74.8956 18.0682C74.4013 19.0795 73.7081 19.8665 72.8161 20.429C71.9297 20.9915 70.8956 21.2727 69.7138 21.2727ZM69.7138 19.4659C70.6115 19.4659 71.3501 19.2358 71.9297 18.7756C72.5092 18.3153 72.9382 17.7102 73.2166 16.9602C73.495 16.2102 73.6342 15.3977 73.6342 14.5227C73.6342 13.6477 73.495 12.8324 73.2166 12.0767C72.9382 11.321 72.5092 10.7102 71.9297 10.2443C71.3501 9.77841 70.6115 9.54545 69.7138 9.54545C68.8161 9.54545 68.0774 9.77841 67.4979 10.2443C66.9183 10.7102 66.4893 11.321 66.2109 12.0767C65.9325 12.8324 65.7933 13.6477 65.7933 14.5227C65.7933 15.3977 65.9325 16.2102 66.2109 16.9602C66.4893 17.7102 66.9183 18.3153 67.4979 18.7756C68.0774 19.2358 68.8161 19.4659 69.7138 19.4659ZM87.9886 10.8409L86.1818 11.3523C86.0682 11.0511 85.9006 10.7585 85.679 10.4744C85.4631 10.1847 85.1676 9.94602 84.7926 9.75852C84.4176 9.57102 83.9375 9.47727 83.3523 9.47727C82.5511 9.47727 81.8835 9.66193 81.3494 10.0312C80.821 10.3949 80.5568 10.858 80.5568 11.4205C80.5568 11.9205 80.7386 12.3153 81.1023 12.6051C81.4659 12.8949 82.0341 13.1364 82.8068 13.3295L84.75 13.8068C85.9205 14.0909 86.7926 14.5256 87.3665 15.1108C87.9403 15.6903 88.2273 16.4375 88.2273 17.3523C88.2273 18.1023 88.0114 18.7727 87.5795 19.3636C87.1534 19.9545 86.5568 20.4205 85.7898 20.7614C85.0227 21.1023 84.1307 21.2727 83.1136 21.2727C81.7784 21.2727 80.6733 20.983 79.7983 20.4034C78.9233 19.8239 78.3693 18.9773 78.1364 17.8636L80.0455 17.3864C80.2273 18.0909 80.571 18.6193 81.0767 18.9716C81.5881 19.3239 82.2557 19.5 83.0795 19.5C84.017 19.5 84.7614 19.3011 85.3125 18.9034C85.8693 18.5 86.1477 18.017 86.1477 17.4545C86.1477 17 85.9886 16.6193 85.6705 16.3125C85.3523 16 84.8636 15.767 84.2045 15.6136L82.0227 15.1023C80.8239 14.8182 79.9432 14.3778 79.3807 13.7812C78.8239 13.179 78.5455 12.4261 78.5455 11.5227C78.5455 10.7841 78.7528 10.1307 79.1676 9.5625C79.5881 8.99432 80.1591 8.5483 80.8807 8.22443C81.608 7.90057 82.4318 7.73864 83.3523 7.73864C84.6477 7.73864 85.6648 8.02273 86.4034 8.59091C87.1477 9.15909 87.6761 9.90909 87.9886 10.8409Z" fill="#DAE3E3"/>
</g>
<defs>
<clipPath id="clip0_14_2">
<rect width="97" height="28" fill="white"/>
</clipPath>
</defs>
</svg>
