<svg width="111" height="111" viewBox="0 0 111 111" fill="none" xmlns="http://www.w3.org/2000/svg">
<g clip-path="url(#clip0_15_130)">
<path d="M55.5 111C86.1518 111 111 86.1518 111 55.5C111 24.8482 86.1518 0 55.5 0C24.8482 0 0 24.8482 0 55.5C0 86.1518 24.8482 111 55.5 111Z" fill="#353E4A"/>
<path d="M30.852 56.6198C31.5288 55.943 32.4348 55.5446 33.3911 55.5031C34.3474 55.4616 35.2845 55.7802 36.0174 56.3958L36.2592 56.6198L56.3621 76.7227C57.0471 77.4224 57.4376 78.3581 57.4534 79.337C57.4692 80.316 57.1091 81.2638 56.4471 81.9852C55.7851 82.7067 54.8717 83.1468 53.895 83.215C52.9182 83.2833 51.9525 82.9744 51.1967 82.352L50.9549 82.13L30.852 62.0271C30.1354 61.3098 29.7329 60.3374 29.7329 59.3235C29.7329 58.3096 30.1354 57.3371 30.852 56.6198Z" fill="#7B7B7B"/>
<path d="M71.7337 34.6477C73.7277 32.6735 77.0974 33.9737 77.2936 36.6814L77.3035 36.9311V58.2114C77.3035 59.9953 75.8427 61.4403 74.0409 61.4403C73.2219 61.444 72.4316 61.1384 71.8282 60.5846C71.2248 60.0307 70.8527 59.2696 70.7862 58.4532L70.7763 58.2114V44.7229L54.8339 60.4948C52.8399 62.469 49.4683 61.1687 49.2721 58.4611L49.2641 58.2114V44.7229L33.3198 60.4948C32.7388 61.0667 31.9663 61.4026 31.1519 61.4374C30.3374 61.4722 29.5391 61.2034 28.9115 60.6831L28.7034 60.4948C28.1263 59.9266 27.7858 59.161 27.7505 58.3519C27.7152 57.5428 27.9877 56.7504 28.5131 56.1341L28.7034 55.9299L50.2195 34.6477C52.2136 32.6735 55.5852 33.9737 55.7814 36.6814L55.7893 36.9311V50.4176L71.7337 34.6477Z" fill="white"/>
</g>
<defs>
<clipPath id="clip0_15_130">
<rect width="111" height="111" fill="white"/>
</clipPath>
</defs>
</svg>
