<svg width="193" height="31" viewBox="0 0 193 31" fill="none" xmlns="http://www.w3.org/2000/svg">
<g clip-path="url(#clip0_15_86)">
<path d="M10.9648 31C15.0208 31 18.537 28.83 20.3163 25.513L14.8972 22.3231C14.2353 23.8111 12.7048 24.7055 10.8834 24.7055C8.19496 24.7055 6.20917 22.7059 6.20917 19.7703C6.20917 16.8361 8.19496 14.8366 10.8834 14.8366C12.7048 14.8366 14.1945 15.7294 14.8972 17.219L20.3178 13.9856C18.5386 10.7105 14.9801 8.54205 10.9663 8.54205C4.67573 8.5405 0 13.4323 0 19.7703C0 26.1097 4.67573 31 10.9648 31ZM28.1041 30.4048V20.7917C28.1041 16.5803 31.7455 15.517 34.3103 15.9417V8.711C31.7048 8.711 28.9319 10.0719 28.1041 12.9223V9.13725H21.898V30.4032L28.1041 30.4048ZM45.4093 31C51.4918 31 56.3741 26.1082 56.3741 19.7703C56.3741 13.4323 51.4918 8.54205 45.4093 8.54205C39.3268 8.54205 34.4445 13.4323 34.4445 19.7703C34.4445 26.1097 39.3268 31 45.4093 31ZM45.4093 24.7892C42.7193 24.7892 40.6506 22.7896 40.6506 19.7703C40.6506 16.7509 42.7193 14.7513 45.4093 14.7513C48.0992 14.7513 50.1679 16.7509 50.1679 19.7703C50.1679 22.7912 48.0992 24.7892 45.4093 24.7892ZM68.2994 30.4048L71.6105 19.0479L74.9202 30.4048H80.7132L87.3325 9.13725H80.7132L77.7338 20.5359L74.507 9.13725H68.714L65.4873 20.5359L62.5064 9.13725H55.8871L62.5064 30.4032L68.2994 30.4048ZM96.7352 31C99.5081 31 101.535 30.0219 102.901 28.4053V30.4048H109.107V0.6293H102.901V11.1352C101.535 9.5201 99.5081 8.54205 96.7352 8.54205C91.3146 8.54205 86.8455 13.4323 86.8455 19.7703C86.8455 26.1097 91.3146 31 96.7352 31ZM97.9761 24.9597C95.1218 24.9597 93.0531 22.9601 93.0531 19.7703C93.0531 16.5803 95.1218 14.5808 97.9761 14.5808C100.832 14.5808 102.901 16.5803 102.901 19.7703C102.901 22.9601 100.832 24.9597 97.9761 24.9597ZM120.081 30.4048V15.2613H123.929V9.13725H120.082C120.082 6.66965 121.614 5.94735 123.93 6.1597V0.0340997C117.062 -0.3906 113.876 3.1806 113.876 9.13725H111.103V15.2613H113.876V30.4048H120.081ZM132.544 31C135.275 31 137.345 29.9785 138.462 28.4053V30.4048H144.669V9.13725H138.462V20.7483C138.462 23.7692 136.89 25.1301 134.613 25.1301C132.627 25.1301 131.014 23.8963 131.014 21.2598V9.13725H124.808V22.1945C124.808 27.9372 128.366 31 132.544 31ZM154.317 30.4048V18.7922C154.317 15.7728 155.891 14.4119 158.167 14.4119C160.152 14.4119 161.766 15.6441 161.766 18.2822V30.4032H167.973V17.3461C167.973 11.6033 164.415 8.54205 160.235 8.54205C157.505 8.54205 155.436 9.56195 154.319 11.1352V9.1357H148.111V30.4048H154.317ZM179.98 31C182.754 31 184.781 30.0219 186.147 28.4053V30.4048H192.353V0.6293H186.147V11.1352C184.781 9.5201 182.754 8.54205 179.98 8.54205C174.561 8.54205 170.092 13.4323 170.092 19.7703C170.092 26.1097 174.559 31 179.98 31ZM181.222 24.9597C178.368 24.9597 176.299 22.9601 176.299 19.7703C176.299 16.5803 178.368 14.5808 181.222 14.5808C184.078 14.5808 186.147 16.5803 186.147 19.7703C186.147 22.9601 184.078 24.9597 181.222 24.9597Z" fill="#353E4A"/>
</g>
<defs>
<clipPath id="clip0_15_86">
<rect width="193" height="31" fill="white"/>
</clipPath>
</defs>
</svg>
